# xmcd
#
# Track frame offsets:
#	150
#	20154
#	40433
#	59850
#	77052
#	95969
#	118609
#	136654
#	156730
#	177499
#	194729
#	210910
#
# Disc length: 3329 seconds
#
# Revision: 5
# Processed by: cddbd v1.5.1PL2 Copyright (c) Steve Scherf et al.
# Submitted via: EasyCDDAExtractor 9.0.0.1
#
DISCID=bb0cff0c
DTITLE=Various Artist - Let There Be Blues
DYEAR=2002
DGENRE=Blues
TTITLE0=Marcia Ball - Louella
TTITLE1=Coco Montoya - Women Have A Way With A Fool
TTITLE2=Lil' Ed and The Blues Imperials - Never Miss Your Water
TTITLE3=Buddy Guy and Junior Wells - Give Me My Coat and Shoes
TTITLE4=Johnny Winter - Route 90
TTITLE5=Albert Collins& Robert Cray - The Moon Is Full
TTITLE6=Shemekia Copeland - Whole Lotta Water
TTITLE7=W.C. Clark - Let It Rain
TTITLE8=Hound Dog Taylor - Give Me Back My Wig
TTITLE9=Koko Taylor - Put The Pot On
TTITLE10=Little Charlie and The Nightcats - Desperate Man
TTITLE11=Luther Allison - Cherry Red Wine
EXTD=
EXTT0=
EXTT1=
EXTT2=
EXTT3=
EXTT4=
EXTT5=
EXTT6=
EXTT7=
EXTT8=
EXTT9=
EXTT10=
EXTT11=
PLAYORDER=
